<?xml version="1.0" encoding="UTF-8"?>
<svg width="180px" height="50px" viewBox="0 0 180 50" version="1.1" xmlns="http://www.w3.org/2000/svg" xmlns:xlink="http://www.w3.org/1999/xlink">
    <!-- Generator: Sketch 46.1 (44463) - http://www.bohemiancoding.com/sketch -->
    <title>Combined Shape</title>
    <desc>Created with Sketch.</desc>
    <defs></defs>
    <g id="Page-1" stroke="none" stroke-width="1" fill="none" fill-rule="evenodd">
        <path d="M28.525,15 L28.525,20.725 C28.525,23.975 28.7,27.4 29.025,30.625 L28.8,30.625 C28.5,29.275 28.125,27.925 27.65,26.625 L23.5,15 L17,15 L17,34.5 L21.05,34.5 L21.05,29.3 C21.05,26.575 20.9,22.075 20.575,18.875 L20.8,18.875 C21.1,20.225 21.45,21.575 21.925,22.875 L26.075,34.5 L32.575,34.5 L32.575,15 L28.525,15 Z M41.075,31.125 L41.075,26.25 L47.575,26.25 L47.575,23 L41.075,23 L41.075,18.375 L48.3,18.375 L48.3,15 L36.575,15 L36.575,34.5 L48.525,34.5 L48.525,31.125 L41.075,31.125 Z M65.8,34.5 L60.575,34.5 L57.65,27.375 L55.775,27.375 L55.775,34.5 L51.275,34.5 L51.275,15 L57.85,15 C61.875,15 64.725,16.825 64.725,20.725 C64.725,23.5 63.525,25.125 61.6,25.95 L65.8,34.5 Z M55.775,18.25 L55.775,24.05 L57.375,24.05 C59.15,24.05 60.225,23.275 60.225,21.2 C60.225,19.2 59.15,18.25 57.375,18.25 L55.775,18.25 Z M79.025,15 L76.35,26 C75.875,27.925 75.65,29.1 75.4,31.025 L75.15,31.025 C74.8,29.075 74.55,27.9 74.075,25.975 L71.425,15 L66.675,15 L71.425,34.5 L78.775,34.5 L83.525,15 L79.025,15 Z M90.525,31.125 L90.525,26.25 L97.025,26.25 L97.025,23 L90.525,23 L90.525,18.375 L97.75,18.375 L97.75,15 L86.025,15 L86.025,34.5 L97.975,34.5 L97.975,31.125 L90.525,31.125 Z M113.525,15 L111.7,22.725 C111.25,24.65 110.85,27.45 110.75,29.35 L110.5,29.35 C110.375,27.45 109.95,24.7 109.45,22.7 L107.575,15 L100.725,15 L100.725,34.5 L104.85,34.5 L104.85,26.875 C104.85,24.15 104.8,21.525 104.6,18.875 L104.85,18.875 L108.65,34.5 L112.325,34.5 L116.05,18.875 L116.3,18.875 C116.075,21.55 116.025,24.2 116.025,26.875 L116.025,34.5 L120.15,34.5 L120.15,15 L113.525,15 Z M128.775,15 L124.15,15 L124.15,34.5 L128.775,34.5 L128.775,15 Z M137.4,31 L137.4,15 L132.775,15 L132.775,34.5 L144.85,34.5 L144.85,31 L137.4,31 Z M0,0 L180,0 L180,50 L0,50 L0,0 Z M151.9,15 L147.35,15 L147.35,34.5 L151.9,34.5 L151.9,28 L153.35,26.4 L158.15,34.5 L163.725,34.5 L156.375,23.1 L163.7,15 L158.075,15 L153.925,20.25 C153.175,21.225 152.45,22.35 151.825,23.425 L151.725,23.425 C151.825,22.325 151.9,21.35 151.9,20.25 L151.9,15 Z" id="Combined-Shape" fill="#EBEBEB"></path>
    </g>
</svg>